<?xml version="1.0" encoding="UTF-8"?>
<!DOCTYPE svg PUBLIC "-//W3C//DTD SVG 1.1//EN" "http://www.w3.org/Graphics/SVG/1.1/DTD/svg11.dtd">
<svg xmlns="http://www.w3.org/2000/svg" xmlns:xlink="http://www.w3.org/1999/xlink" version="1.1" width="1201px" height="1331px" viewBox="-0.5 -0.5 1201 1331"><defs><clipPath id="mx-clip-0-535-30-30-0"><rect x="0" y="535" width="30" height="30"/></clipPath><clipPath id="mx-clip-36-535-194-30-0"><rect x="36" y="535" width="194" height="30"/></clipPath><clipPath id="mx-clip-36-565-194-30-0"><rect x="36" y="565" width="194" height="30"/></clipPath><clipPath id="mx-clip-36-595-194-30-0"><rect x="36" y="595" width="194" height="30"/></clipPath><clipPath id="mx-clip-36-625-194-30-0"><rect x="36" y="625" width="194" height="30"/></clipPath><clipPath id="mx-clip-36-655-194-40-0"><rect x="36" y="655" width="194" height="40"/></clipPath><clipPath id="mx-clip-36-695-194-30-0"><rect x="36" y="695" width="194" height="30"/></clipPath><clipPath id="mx-clip-36-725-194-30-0"><rect x="36" y="725" width="194" height="30"/></clipPath><clipPath id="mx-clip-36-755-194-40-0"><rect x="36" y="755" width="194" height="40"/></clipPath><clipPath id="mx-clip-36-795-194-30-0"><rect x="36" y="795" width="194" height="30"/></clipPath><clipPath id="mx-clip-515-210-30-30-0"><rect x="515" y="210" width="30" height="30"/></clipPath><clipPath id="mx-clip-551-210-94-30-0"><rect x="551" y="210" width="94" height="30"/></clipPath><clipPath id="mx-clip-551-240-94-30-0"><rect x="551" y="240" width="94" height="30"/></clipPath><clipPath id="mx-clip-551-270-94-20-0"><rect x="551" y="270" width="94" height="20"/></clipPath><clipPath id="mx-clip-551-290-94-30-0"><rect x="551" y="290" width="94" height="30"/></clipPath><clipPath id="mx-clip-730-1080-30-30-0"><rect x="730" y="1080" width="30" height="30"/></clipPath><clipPath id="mx-clip-766-1080-144-30-0"><rect x="766" y="1080" width="144" height="30"/></clipPath><clipPath id="mx-clip-766-1110-144-30-0"><rect x="766" y="1110" width="144" height="30"/></clipPath><clipPath id="mx-clip-766-1140-144-30-0"><rect x="766" y="1140" width="144" height="30"/></clipPath><clipPath id="mx-clip-766-1170-144-30-0"><rect x="766" y="1170" width="144" height="30"/></clipPath><clipPath id="mx-clip-950-30-30-30-0"><rect x="950" y="30" width="30" height="30"/></clipPath><clipPath id="mx-clip-986-30-214-30-0"><rect x="986" y="30" width="214" height="30"/></clipPath><clipPath id="mx-clip-986-60-214-30-0"><rect x="986" y="60" width="214" height="30"/></clipPath><clipPath id="mx-clip-986-90-214-30-0"><rect x="986" y="90" width="214" height="30"/></clipPath><clipPath id="mx-clip-986-120-214-30-0"><rect x="986" y="120" width="214" height="30"/></clipPath><clipPath id="mx-clip-986-150-214-30-0"><rect x="986" y="150" width="214" height="30"/></clipPath><clipPath id="mx-clip-986-180-214-30-0"><rect x="986" y="180" width="214" height="30"/></clipPath><clipPath id="mx-clip-986-210-214-30-0"><rect x="986" y="210" width="214" height="30"/></clipPath><clipPath id="mx-clip-986-240-214-30-0"><rect x="986" y="240" width="214" height="30"/></clipPath><clipPath id="mx-clip-986-270-214-40-0"><rect x="986" y="270" width="214" height="40"/></clipPath><clipPath id="mx-clip-986-310-214-30-0"><rect x="986" y="310" width="214" height="30"/></clipPath><clipPath id="mx-clip-986-340-214-30-0"><rect x="986" y="340" width="214" height="30"/></clipPath><clipPath id="mx-clip-986-370-214-20-0"><rect x="986" y="370" width="214" height="20"/></clipPath><clipPath id="mx-clip-986-390-214-30-0"><rect x="986" y="390" width="214" height="30"/></clipPath><clipPath id="mx-clip-986-420-214-30-0"><rect x="986" y="420" width="214" height="30"/></clipPath><clipPath id="mx-clip-986-450-214-30-0"><rect x="986" y="450" width="214" height="30"/></clipPath><clipPath id="mx-clip-986-480-214-30-0"><rect x="986" y="480" width="214" height="30"/></clipPath><clipPath id="mx-clip-986-510-214-30-0"><rect x="986" y="510" width="214" height="30"/></clipPath><clipPath id="mx-clip-986-540-214-30-0"><rect x="986" y="540" width="214" height="30"/></clipPath><clipPath id="mx-clip-986-570-214-30-0"><rect x="986" y="570" width="214" height="30"/></clipPath><clipPath id="mx-clip-986-600-214-40-0"><rect x="986" y="600" width="214" height="40"/></clipPath><clipPath id="mx-clip-986-640-214-30-0"><rect x="986" y="640" width="214" height="30"/></clipPath><clipPath id="mx-clip-986-670-214-30-0"><rect x="986" y="670" width="214" height="30"/></clipPath><clipPath id="mx-clip-986-700-214-30-0"><rect x="986" y="700" width="214" height="30"/></clipPath><clipPath id="mx-clip-986-730-214-30-0"><rect x="986" y="730" width="214" height="30"/></clipPath><clipPath id="mx-clip-986-760-214-20-0"><rect x="986" y="760" width="214" height="20"/></clipPath><clipPath id="mx-clip-986-780-214-40-0"><rect x="986" y="780" width="214" height="40"/></clipPath><clipPath id="mx-clip-986-820-214-30-0"><rect x="986" y="820" width="214" height="30"/></clipPath><clipPath id="mx-clip-986-850-214-30-0"><rect x="986" y="850" width="214" height="30"/></clipPath><clipPath id="mx-clip-986-880-214-20-0"><rect x="986" y="880" width="214" height="20"/></clipPath><clipPath id="mx-clip-986-900-214-30-0"><rect x="986" y="900" width="214" height="30"/></clipPath><clipPath id="mx-clip-986-930-214-30-0"><rect x="986" y="930" width="214" height="30"/></clipPath><clipPath id="mx-clip-986-960-214-30-0"><rect x="986" y="960" width="214" height="30"/></clipPath><clipPath id="mx-clip-986-990-214-30-0"><rect x="986" y="990" width="214" height="30"/></clipPath><clipPath id="mx-clip-986-1020-214-30-0"><rect x="986" y="1020" width="214" height="30"/></clipPath><clipPath id="mx-clip-986-1050-214-40-0"><rect x="986" y="1050" width="214" height="40"/></clipPath><clipPath id="mx-clip-986-1090-214-30-0"><rect x="986" y="1090" width="214" height="30"/></clipPath><clipPath id="mx-clip-986-1120-214-30-0"><rect x="986" y="1120" width="214" height="30"/></clipPath><clipPath id="mx-clip-986-1150-214-30-0"><rect x="986" y="1150" width="214" height="30"/></clipPath><clipPath id="mx-clip-986-1180-214-30-0"><rect x="986" y="1180" width="214" height="30"/></clipPath><clipPath id="mx-clip-986-1210-214-30-0"><rect x="986" y="1210" width="214" height="30"/></clipPath><clipPath id="mx-clip-986-1240-214-30-0"><rect x="986" y="1240" width="214" height="30"/></clipPath><clipPath id="mx-clip-986-1270-214-30-0"><rect x="986" y="1270" width="214" height="30"/></clipPath><clipPath id="mx-clip-986-1300-214-30-0"><rect x="986" y="1300" width="214" height="30"/></clipPath><clipPath id="mx-clip-460-770-30-30-0"><rect x="460" y="770" width="30" height="30"/></clipPath><clipPath id="mx-clip-496-770-144-30-0"><rect x="496" y="770" width="144" height="30"/></clipPath><clipPath id="mx-clip-496-800-144-30-0"><rect x="496" y="800" width="144" height="30"/></clipPath><clipPath id="mx-clip-496-830-144-30-0"><rect x="496" y="830" width="144" height="30"/></clipPath><clipPath id="mx-clip-496-860-144-30-0"><rect x="496" y="860" width="144" height="30"/></clipPath><clipPath id="mx-clip-496-890-144-30-0"><rect x="496" y="890" width="144" height="30"/></clipPath><clipPath id="mx-clip-496-920-144-30-0"><rect x="496" y="920" width="144" height="30"/></clipPath><clipPath id="mx-clip-496-950-144-30-0"><rect x="496" y="950" width="144" height="30"/></clipPath></defs><g><path d="M 0 535 L 0 505 L 230 505 L 230 535" fill="rgb(255, 255, 255)" stroke="rgb(0, 0, 0)" stroke-miterlimit="10" pointer-events="all"/><path d="M 0 535 L 0 825 L 230 825 L 230 535" fill="none" stroke="rgb(0, 0, 0)" stroke-miterlimit="10" pointer-events="none"/><path d="M 0 535 L 230 535" fill="none" stroke="rgb(0, 0, 0)" stroke-miterlimit="10" pointer-events="none"/><path d="M 30 535 L 30 565 L 30 595 L 30 625 L 30 655 L 30 695 L 30 725 L 30 755 L 30 795 L 30 825" fill="none" stroke="rgb(0, 0, 0)" stroke-miterlimit="10" pointer-events="none"/><g fill="rgb(0, 0, 0)" font-family="Helvetica" font-weight="bold" pointer-events="none" text-anchor="middle" font-size="12px"><text x="114.5" y="524.5">questions</text></g><path d="M 0 535 M 230 535 M 230 565 L 0 565" fill="none" stroke="rgb(0, 0, 0)" stroke-linecap="square" stroke-miterlimit="10" pointer-events="none"/><path d="M 0 535 M 30 535 M 30 565 M 0 565" fill="none" stroke="rgb(0, 0, 0)" stroke-linecap="square" stroke-miterlimit="10" pointer-events="none"/><g fill="rgb(0, 0, 0)" font-family="Helvetica" font-weight="bold" pointer-events="none" clip-path="url(#mx-clip-0-535-30-30-0)" text-anchor="middle" font-size="12px"><text x="14.5" y="554.5">PK</text></g><path d="M 30 535 M 230 535 M 230 565 M 30 565" fill="none" stroke="rgb(0, 0, 0)" stroke-linecap="square" stroke-miterlimit="10" pointer-events="none"/><g fill="rgb(0, 0, 0)" font-family="Helvetica" font-weight="bold" text-decoration="underline" pointer-events="none" clip-path="url(#mx-clip-36-535-194-30-0)" font-size="12px"><text x="37.5" y="554.5">question_id</text></g><path d="M 0 565 M 30 565 M 30 595 M 0 595" fill="none" stroke="rgb(0, 0, 0)" stroke-linecap="square" stroke-miterlimit="10" pointer-events="none"/><path d="M 30 565 M 230 565 M 230 595 M 30 595" fill="none" stroke="rgb(0, 0, 0)" stroke-linecap="square" stroke-miterlimit="10" pointer-events="none"/><g fill="rgb(0, 0, 0)" font-family="Helvetica" pointer-events="none" clip-path="url(#mx-clip-36-565-194-30-0)" font-size="12px"><text x="37.5" y="584.5">question_text</text></g><path d="M 0 595 M 30 595 M 30 625 M 0 625" fill="none" stroke="rgb(0, 0, 0)" stroke-linecap="square" stroke-miterlimit="10" pointer-events="none"/><path d="M 30 595 M 230 595 M 230 625 M 30 625" fill="none" stroke="rgb(0, 0, 0)" stroke-linecap="square" stroke-miterlimit="10" pointer-events="none"/><g fill="rgb(0, 0, 0)" font-family="Helvetica" pointer-events="none" clip-path="url(#mx-clip-36-595-194-30-0)" font-size="12px"><text x="37.5" y="614.5">asking_member</text></g><path d="M 0 625 M 30 625 M 30 655 M 0 655" fill="none" stroke="rgb(0, 0, 0)" stroke-linecap="square" stroke-miterlimit="10" pointer-events="none"/><path d="M 30 625 M 230 625 M 230 655 M 30 655" fill="none" stroke="rgb(0, 0, 0)" stroke-linecap="square" stroke-miterlimit="10" pointer-events="none"/><g fill="rgb(0, 0, 0)" font-family="Helvetica" pointer-events="none" clip-path="url(#mx-clip-36-625-194-30-0)" font-size="12px"><text x="37.5" y="644.5">question_tabled_when</text></g><path d="M 0 655 M 30 655 M 30 695 M 0 695" fill="none" stroke="rgb(0, 0, 0)" stroke-linecap="square" stroke-miterlimit="10" pointer-events="none"/><path d="M 30 655 M 230 655 M 230 695 M 30 695" fill="none" stroke="rgb(0, 0, 0)" stroke-linecap="square" stroke-miterlimit="10" pointer-events="none"/><g fill="rgb(0, 0, 0)" font-family="Helvetica" pointer-events="none" clip-path="url(#mx-clip-36-655-194-40-0)" font-size="12px"><text x="37.5" y="679.5">question_answering_when</text></g><path d="M 0 695 M 30 695 M 30 725 M 0 725" fill="none" stroke="rgb(0, 0, 0)" stroke-linecap="square" stroke-miterlimit="10" pointer-events="none"/><path d="M 30 695 M 230 695 M 230 725 M 30 725" fill="none" stroke="rgb(0, 0, 0)" stroke-linecap="square" stroke-miterlimit="10" pointer-events="none"/><g fill="rgb(0, 0, 0)" font-family="Helvetica" pointer-events="none" clip-path="url(#mx-clip-36-695-194-30-0)" font-size="12px"><text x="37.5" y="714.5">question_answering_body</text></g><path d="M 0 725 M 30 725 M 30 755 M 0 755" fill="none" stroke="rgb(0, 0, 0)" stroke-linecap="square" stroke-miterlimit="10" pointer-events="none"/><path d="M 30 725 M 230 725 M 230 755 M 30 755" fill="none" stroke="rgb(0, 0, 0)" stroke-linecap="square" stroke-miterlimit="10" pointer-events="none"/><g fill="rgb(0, 0, 0)" font-family="Helvetica" pointer-events="none" clip-path="url(#mx-clip-36-725-194-30-0)" font-size="12px"><text x="37.5" y="744.5">question_answering_body_id</text></g><path d="M 0 755 M 30 755 M 30 795 M 0 795" fill="none" stroke="rgb(0, 0, 0)" stroke-linecap="square" stroke-miterlimit="10" pointer-events="none"/><path d="M 30 755 M 230 755 M 230 795 M 30 795" fill="none" stroke="rgb(0, 0, 0)" stroke-linecap="square" stroke-miterlimit="10" pointer-events="none"/><g fill="rgb(0, 0, 0)" font-family="Helvetica" pointer-events="none" clip-path="url(#mx-clip-36-755-194-40-0)" font-size="12px"><text x="37.5" y="779.5">answering_member</text></g><path d="M 0 795 M 30 795 M 30 825 M 0 825" fill="none" stroke="rgb(0, 0, 0)" stroke-linecap="square" stroke-miterlimit="10" pointer-events="none"/><path d="M 30 795 M 230 795 M 230 825 M 30 825" fill="none" stroke="rgb(0, 0, 0)" stroke-linecap="square" stroke-miterlimit="10" pointer-events="none"/><g fill="rgb(0, 0, 0)" font-family="Helvetica" pointer-events="none" clip-path="url(#mx-clip-36-795-194-30-0)" font-size="12px"><text x="37.5" y="814.5">oral_written</text></g><path d="M 515 210 L 515 180 L 645 180 L 645 210" fill="rgb(255, 255, 255)" stroke="rgb(0, 0, 0)" stroke-miterlimit="10" pointer-events="none"/><path d="M 515 210 L 515 320 L 645 320 L 645 210" fill="none" stroke="rgb(0, 0, 0)" stroke-miterlimit="10" pointer-events="none"/><path d="M 515 210 L 645 210" fill="none" stroke="rgb(0, 0, 0)" stroke-miterlimit="10" pointer-events="none"/><path d="M 545 210 L 545 240 L 545 270 L 545 290 L 545 320" fill="none" stroke="rgb(0, 0, 0)" stroke-miterlimit="10" pointer-events="none"/><g fill="rgb(0, 0, 0)" font-family="Helvetica" font-weight="bold" pointer-events="none" text-anchor="middle" font-size="12px"><text x="579.5" y="199.5">question_topics</text></g><path d="M 515 210 M 645 210 M 645 240 L 515 240" fill="none" stroke="rgb(0, 0, 0)" stroke-linecap="square" stroke-miterlimit="10" pointer-events="none"/><path d="M 515 210 M 545 210 M 545 240 M 515 240" fill="none" stroke="rgb(0, 0, 0)" stroke-linecap="square" stroke-miterlimit="10" pointer-events="none"/><g fill="rgb(0, 0, 0)" font-family="Helvetica" font-weight="bold" pointer-events="none" clip-path="url(#mx-clip-515-210-30-30-0)" text-anchor="middle" font-size="12px"><text x="529.5" y="229.5">PK</text></g><path d="M 545 210 M 645 210 M 645 240 M 545 240" fill="none" stroke="rgb(0, 0, 0)" stroke-linecap="square" stroke-miterlimit="10" pointer-events="none"/><g fill="rgb(0, 0, 0)" font-family="Helvetica" font-weight="bold" text-decoration="underline" pointer-events="none" clip-path="url(#mx-clip-551-210-94-30-0)" font-size="12px"><text x="552.5" y="229.5">question_id</text></g><path d="M 515 240 M 545 240 M 545 270 M 515 270" fill="none" stroke="rgb(0, 0, 0)" stroke-linecap="square" stroke-miterlimit="10" pointer-events="none"/><path d="M 545 240 M 645 240 M 645 270 M 545 270" fill="none" stroke="rgb(0, 0, 0)" stroke-linecap="square" stroke-miterlimit="10" pointer-events="none"/><g fill="rgb(0, 0, 0)" font-family="Helvetica" pointer-events="none" clip-path="url(#mx-clip-551-240-94-30-0)" font-size="12px"><text x="552.5" y="259.5">question_text</text></g><path d="M 515 270 M 545 270 M 545 290 M 515 290" fill="none" stroke="rgb(0, 0, 0)" stroke-linecap="square" stroke-miterlimit="10" pointer-events="none"/><path d="M 545 270 M 645 270 M 645 290 M 545 290" fill="none" stroke="rgb(0, 0, 0)" stroke-linecap="square" stroke-miterlimit="10" pointer-events="none"/><g fill="rgb(0, 0, 0)" font-family="Helvetica" pointer-events="none" clip-path="url(#mx-clip-551-270-94-20-0)" font-size="12px"><text x="552.5" y="284.5">is_econ</text></g><path d="M 515 290 M 545 290 M 545 320 M 515 320" fill="none" stroke="rgb(0, 0, 0)" stroke-linecap="square" stroke-miterlimit="10" pointer-events="none"/><path d="M 545 290 M 645 290 M 645 320 M 545 320" fill="none" stroke="rgb(0, 0, 0)" stroke-linecap="square" stroke-miterlimit="10" pointer-events="none"/><g fill="rgb(0, 0, 0)" font-family="Helvetica" pointer-events="none" clip-path="url(#mx-clip-551-290-94-30-0)" font-size="12px"><text x="552.5" y="309.5">is_health_welf</text></g><path d="M 230 550 L 260 550 L 485 225 L 515 225" fill="none" stroke="rgb(0, 0, 0)" stroke-miterlimit="10" pointer-events="none"/><path d="M 234 546 L 234 554 M 238 546 L 238 554" fill="none" stroke="rgb(0, 0, 0)" stroke-miterlimit="10" pointer-events="none"/><path d="M 511 229 L 511 221 M 507 229 L 507 221" fill="none" stroke="rgb(0, 0, 0)" stroke-miterlimit="10" pointer-events="none"/><path d="M 730 1080 L 730 1050 L 910 1050 L 910 1080" fill="rgb(255, 255, 255)" stroke="rgb(0, 0, 0)" stroke-miterlimit="10" pointer-events="none"/><path d="M 730 1080 L 730 1200 L 910 1200 L 910 1080" fill="none" stroke="rgb(0, 0, 0)" stroke-miterlimit="10" pointer-events="none"/><path d="M 730 1080 L 910 1080" fill="none" stroke="rgb(0, 0, 0)" stroke-miterlimit="10" pointer-events="none"/><path d="M 760 1080 L 760 1110 L 760 1140 L 760 1170 L 760 1200" fill="none" stroke="rgb(0, 0, 0)" stroke-miterlimit="10" pointer-events="none"/><g fill="rgb(0, 0, 0)" font-family="Helvetica" font-weight="bold" pointer-events="none" text-anchor="middle" font-size="12px"><text x="819.5" y="1069.5">parties</text></g><path d="M 730 1080 M 910 1080 M 910 1110 L 730 1110" fill="none" stroke="rgb(0, 0, 0)" stroke-linecap="square" stroke-miterlimit="10" pointer-events="none"/><path d="M 730 1080 M 760 1080 M 760 1110 M 730 1110" fill="none" stroke="rgb(0, 0, 0)" stroke-linecap="square" stroke-miterlimit="10" pointer-events="none"/><g fill="rgb(0, 0, 0)" font-family="Helvetica" font-weight="bold" pointer-events="none" clip-path="url(#mx-clip-730-1080-30-30-0)" text-anchor="middle" font-size="12px"><text x="744.5" y="1099.5">PK</text></g><path d="M 760 1080 M 910 1080 M 910 1110 M 760 1110" fill="none" stroke="rgb(0, 0, 0)" stroke-linecap="square" stroke-miterlimit="10" pointer-events="none"/><g fill="rgb(0, 0, 0)" font-family="Helvetica" font-weight="bold" text-decoration="underline" pointer-events="none" clip-path="url(#mx-clip-766-1080-144-30-0)" font-size="12px"><text x="767.5" y="1099.5">party_id</text></g><path d="M 730 1110 M 760 1110 M 760 1140 M 730 1140" fill="none" stroke="rgb(0, 0, 0)" stroke-linecap="square" stroke-miterlimit="10" pointer-events="none"/><path d="M 760 1110 M 910 1110 M 910 1140 M 760 1140" fill="none" stroke="rgb(0, 0, 0)" stroke-linecap="square" stroke-miterlimit="10" pointer-events="none"/><g fill="rgb(0, 0, 0)" font-family="Helvetica" pointer-events="none" clip-path="url(#mx-clip-766-1110-144-30-0)" font-size="12px"><text x="767.5" y="1129.5">party_name</text></g><path d="M 730 1140 M 760 1140 M 760 1170 M 730 1170" fill="none" stroke="rgb(0, 0, 0)" stroke-linecap="square" stroke-miterlimit="10" pointer-events="none"/><path d="M 760 1140 M 910 1140 M 910 1170 M 760 1170" fill="none" stroke="rgb(0, 0, 0)" stroke-linecap="square" stroke-miterlimit="10" pointer-events="none"/><g fill="rgb(0, 0, 0)" font-family="Helvetica" pointer-events="none" clip-path="url(#mx-clip-766-1140-144-30-0)" font-size="12px"><text x="767.5" y="1159.5">party_abbreviation</text></g><path d="M 730 1170 M 760 1170 M 760 1200 M 730 1200" fill="none" stroke="rgb(0, 0, 0)" stroke-linecap="square" stroke-miterlimit="10" pointer-events="none"/><path d="M 760 1170 M 910 1170 M 910 1200 M 760 1200" fill="none" stroke="rgb(0, 0, 0)" stroke-linecap="square" stroke-miterlimit="10" pointer-events="none"/><g fill="rgb(0, 0, 0)" font-family="Helvetica" pointer-events="none" clip-path="url(#mx-clip-766-1170-144-30-0)" font-size="12px"><text x="767.5" y="1189.5">party_colour</text></g><path d="M 950 30 L 950 0 L 1200 0 L 1200 30" fill="rgb(255, 255, 255)" stroke="rgb(0, 0, 0)" stroke-miterlimit="10" pointer-events="none"/><path d="M 950 30 L 950 1330 L 1200 1330 L 1200 30" fill="none" stroke="rgb(0, 0, 0)" stroke-miterlimit="10" pointer-events="none"/><path d="M 950 30 L 1200 30" fill="none" stroke="rgb(0, 0, 0)" stroke-miterlimit="10" pointer-events="none"/><path d="M 980 30 L 980 60 L 980 90 L 980 120 L 980 150 L 980 180 L 980 210 L 980 240 L 980 270 L 980 310 L 980 340 L 980 370 L 980 390 L 980 420 L 980 450 L 980 480 L 980 510 L 980 540 L 980 570 L 980 600 L 980 640 L 980 670 L 980 700 L 980 730 L 980 760 L 980 780 L 980 820 L 980 850 L 980 880 L 980 900 L 980 930 L 980 960 L 980 990 L 980 1020 L 980 1050 L 980 1090 L 980 1120 L 980 1150 L 980 1180 L 980 1210 L 980 1240 L 980 1270 L 980 1300 L 980 1330" fill="none" stroke="rgb(0, 0, 0)" stroke-miterlimit="10" pointer-events="none"/><g fill="rgb(0, 0, 0)" font-family="Helvetica" font-weight="bold" pointer-events="none" text-anchor="middle" font-size="12px"><text x="1074.5" y="19.5">constituencies</text></g><path d="M 950 30 M 1200 30 M 1200 60 L 950 60" fill="none" stroke="rgb(0, 0, 0)" stroke-linecap="square" stroke-miterlimit="10" pointer-events="none"/><path d="M 950 30 M 980 30 M 980 60 M 950 60" fill="none" stroke="rgb(0, 0, 0)" stroke-linecap="square" stroke-miterlimit="10" pointer-events="none"/><g fill="rgb(0, 0, 0)" font-family="Helvetica" font-weight="bold" pointer-events="none" clip-path="url(#mx-clip-950-30-30-30-0)" text-anchor="middle" font-size="12px"><text x="964.5" y="49.5">PK</text></g><path d="M 980 30 M 1200 30 M 1200 60 M 980 60" fill="none" stroke="rgb(0, 0, 0)" stroke-linecap="square" stroke-miterlimit="10" pointer-events="none"/><g fill="rgb(0, 0, 0)" font-family="Helvetica" font-weight="bold" text-decoration="underline" pointer-events="none" clip-path="url(#mx-clip-986-30-214-30-0)" font-size="12px"><text x="987.5" y="49.5">constituency_id</text></g><path d="M 950 60 M 980 60 M 980 90 M 950 90" fill="none" stroke="rgb(0, 0, 0)" stroke-linecap="square" stroke-miterlimit="10" pointer-events="none"/><path d="M 980 60 M 1200 60 M 1200 90 M 980 90" fill="none" stroke="rgb(0, 0, 0)" stroke-linecap="square" stroke-miterlimit="10" pointer-events="none"/><g fill="rgb(0, 0, 0)" font-family="Helvetica" pointer-events="none" clip-path="url(#mx-clip-986-60-214-30-0)" font-size="12px"><text x="987.5" y="79.5">cons_name</text></g><path d="M 950 90 M 980 90 M 980 120 M 950 120" fill="none" stroke="rgb(0, 0, 0)" stroke-linecap="square" stroke-miterlimit="10" pointer-events="none"/><path d="M 980 90 M 1200 90 M 1200 120 M 980 120" fill="none" stroke="rgb(0, 0, 0)" stroke-linecap="square" stroke-miterlimit="10" pointer-events="none"/><g fill="rgb(0, 0, 0)" font-family="Helvetica" pointer-events="none" clip-path="url(#mx-clip-986-90-214-30-0)" font-size="12px"><text x="987.5" y="109.5">cons_start_date</text></g><path d="M 950 120 M 980 120 M 980 150 M 950 150" fill="none" stroke="rgb(0, 0, 0)" stroke-linecap="square" stroke-miterlimit="10" pointer-events="none"/><path d="M 980 120 M 1200 120 M 1200 150 M 980 150" fill="none" stroke="rgb(0, 0, 0)" stroke-linecap="square" stroke-miterlimit="10" pointer-events="none"/><g fill="rgb(0, 0, 0)" font-family="Helvetica" pointer-events="none" clip-path="url(#mx-clip-986-120-214-30-0)" font-size="12px"><text x="987.5" y="139.5">cons_end_date</text></g><path d="M 950 150 M 980 150 M 980 180 M 950 180" fill="none" stroke="rgb(0, 0, 0)" stroke-linecap="square" stroke-miterlimit="10" pointer-events="none"/><path d="M 980 150 M 1200 150 M 1200 180 M 980 180" fill="none" stroke="rgb(0, 0, 0)" stroke-linecap="square" stroke-miterlimit="10" pointer-events="none"/><g fill="rgb(0, 0, 0)" font-family="Helvetica" pointer-events="none" clip-path="url(#mx-clip-986-150-214-30-0)" font-size="12px"><text x="987.5" y="169.5">last_election_1_electorate</text></g><path d="M 950 180 M 980 180 M 980 210 M 950 210" fill="none" stroke="rgb(0, 0, 0)" stroke-linecap="square" stroke-miterlimit="10" pointer-events="none"/><path d="M 980 180 M 1200 180 M 1200 210 M 980 210" fill="none" stroke="rgb(0, 0, 0)" stroke-linecap="square" stroke-miterlimit="10" pointer-events="none"/><g fill="rgb(0, 0, 0)" font-family="Helvetica" pointer-events="none" clip-path="url(#mx-clip-986-180-214-30-0)" font-size="12px"><text x="987.5" y="199.5">last_election_1_turnout</text></g><path d="M 950 210 M 980 210 M 980 240 M 950 240" fill="none" stroke="rgb(0, 0, 0)" stroke-linecap="square" stroke-miterlimit="10" pointer-events="none"/><path d="M 980 210 M 1200 210 M 1200 240 M 980 240" fill="none" stroke="rgb(0, 0, 0)" stroke-linecap="square" stroke-miterlimit="10" pointer-events="none"/><g fill="rgb(0, 0, 0)" font-family="Helvetica" pointer-events="none" clip-path="url(#mx-clip-986-210-214-30-0)" font-size="12px"><text x="987.5" y="229.5">last_election_1_majority</text></g><path d="M 950 240 M 980 240 M 980 270 M 950 270" fill="none" stroke="rgb(0, 0, 0)" stroke-linecap="square" stroke-miterlimit="10" pointer-events="none"/><path d="M 980 240 M 1200 240 M 1200 270 M 980 270" fill="none" stroke="rgb(0, 0, 0)" stroke-linecap="square" stroke-miterlimit="10" pointer-events="none"/><g fill="rgb(0, 0, 0)" font-family="Helvetica" pointer-events="none" clip-path="url(#mx-clip-986-240-214-30-0)" font-size="12px"><text x="987.5" y="259.5">last_election_1_result</text></g><path d="M 950 270 M 980 270 M 980 310 M 950 310" fill="none" stroke="rgb(0, 0, 0)" stroke-linecap="square" stroke-miterlimit="10" pointer-events="none"/><path d="M 980 270 M 1200 270 M 1200 310 M 980 310" fill="none" stroke="rgb(0, 0, 0)" stroke-linecap="square" stroke-miterlimit="10" pointer-events="none"/><g fill="rgb(0, 0, 0)" font-family="Helvetica" pointer-events="none" clip-path="url(#mx-clip-986-270-214-40-0)" font-size="12px"><text x="987.5" y="294.5">last_election_1_winning_party</text></g><path d="M 950 310 M 980 310 M 980 340 M 950 340" fill="none" stroke="rgb(0, 0, 0)" stroke-linecap="square" stroke-miterlimit="10" pointer-events="none"/><path d="M 980 310 M 1200 310 M 1200 340 M 980 340" fill="none" stroke="rgb(0, 0, 0)" stroke-linecap="square" stroke-miterlimit="10" pointer-events="none"/><g fill="rgb(0, 0, 0)" font-family="Helvetica" pointer-events="none" clip-path="url(#mx-clip-986-310-214-30-0)" font-size="12px"><text x="987.5" y="329.5">last_election_1_election_ID</text></g><path d="M 950 340 M 980 340 M 980 370 M 950 370" fill="none" stroke="rgb(0, 0, 0)" stroke-linecap="square" stroke-miterlimit="10" pointer-events="none"/><path d="M 980 340 M 1200 340 M 1200 370 M 980 370" fill="none" stroke="rgb(0, 0, 0)" stroke-linecap="square" stroke-miterlimit="10" pointer-events="none"/><g fill="rgb(0, 0, 0)" font-family="Helvetica" pointer-events="none" clip-path="url(#mx-clip-986-340-214-30-0)" font-size="12px"><text x="987.5" y="359.5">last_election_1_electionDate</text></g><path d="M 950 370 M 980 370 M 980 390 M 950 390" fill="none" stroke="rgb(0, 0, 0)" stroke-linecap="square" stroke-miterlimit="10" pointer-events="none"/><path d="M 980 370 M 1200 370 M 1200 390 M 980 390" fill="none" stroke="rgb(0, 0, 0)" stroke-linecap="square" stroke-miterlimit="10" pointer-events="none"/><g fill="rgb(0, 0, 0)" font-family="Helvetica" pointer-events="none" clip-path="url(#mx-clip-986-370-214-20-0)" font-size="12px"><text x="987.5" y="384.5">last_election_1_isGeneralElection</text></g><path d="M 950 390 M 980 390 M 980 420 M 950 420" fill="none" stroke="rgb(0, 0, 0)" stroke-linecap="square" stroke-miterlimit="10" pointer-events="none"/><path d="M 980 390 M 1200 390 M 1200 420 M 980 420" fill="none" stroke="rgb(0, 0, 0)" stroke-linecap="square" stroke-miterlimit="10" pointer-events="none"/><g fill="rgb(0, 0, 0)" font-family="Helvetica" pointer-events="none" clip-path="url(#mx-clip-986-390-214-30-0)" font-size="12px"><text x="987.5" y="409.5">last_election_2_electorate</text></g><path d="M 950 420 M 980 420 M 980 450 M 950 450" fill="none" stroke="rgb(0, 0, 0)" stroke-linecap="square" stroke-miterlimit="10" pointer-events="none"/><path d="M 980 420 M 1200 420 M 1200 450 M 980 450" fill="none" stroke="rgb(0, 0, 0)" stroke-linecap="square" stroke-miterlimit="10" pointer-events="none"/><g fill="rgb(0, 0, 0)" font-family="Helvetica" pointer-events="none" clip-path="url(#mx-clip-986-420-214-30-0)" font-size="12px"><text x="987.5" y="439.5">last_election_2_turnout</text></g><path d="M 950 450 M 980 450 M 980 480 M 950 480" fill="none" stroke="rgb(0, 0, 0)" stroke-linecap="square" stroke-miterlimit="10" pointer-events="none"/><path d="M 980 450 M 1200 450 M 1200 480 M 980 480" fill="none" stroke="rgb(0, 0, 0)" stroke-linecap="square" stroke-miterlimit="10" pointer-events="none"/><g fill="rgb(0, 0, 0)" font-family="Helvetica" pointer-events="none" clip-path="url(#mx-clip-986-450-214-30-0)" font-size="12px"><text x="987.5" y="469.5">last_election_2_majority</text></g><path d="M 950 480 M 980 480 M 980 510 M 950 510" fill="none" stroke="rgb(0, 0, 0)" stroke-linecap="square" stroke-miterlimit="10" pointer-events="none"/><path d="M 980 480 M 1200 480 M 1200 510 M 980 510" fill="none" stroke="rgb(0, 0, 0)" stroke-linecap="square" stroke-miterlimit="10" pointer-events="none"/><g fill="rgb(0, 0, 0)" font-family="Helvetica" pointer-events="none" clip-path="url(#mx-clip-986-480-214-30-0)" font-size="12px"><text x="987.5" y="499.5">last_election_2_result</text></g><path d="M 950 510 M 980 510 M 980 540 M 950 540" fill="none" stroke="rgb(0, 0, 0)" stroke-linecap="square" stroke-miterlimit="10" pointer-events="none"/><path d="M 980 510 M 1200 510 M 1200 540 M 980 540" fill="none" stroke="rgb(0, 0, 0)" stroke-linecap="square" stroke-miterlimit="10" pointer-events="none"/><g fill="rgb(0, 0, 0)" font-family="Helvetica" pointer-events="none" clip-path="url(#mx-clip-986-510-214-30-0)" font-size="12px"><text x="987.5" y="529.5">last_election_2_electionDate</text></g><path d="M 950 540 M 980 540 M 980 570 M 950 570" fill="none" stroke="rgb(0, 0, 0)" stroke-linecap="square" stroke-miterlimit="10" pointer-events="none"/><path d="M 980 540 M 1200 540 M 1200 570 M 980 570" fill="none" stroke="rgb(0, 0, 0)" stroke-linecap="square" stroke-miterlimit="10" pointer-events="none"/><g fill="rgb(0, 0, 0)" font-family="Helvetica" pointer-events="none" clip-path="url(#mx-clip-986-540-214-30-0)" font-size="12px"><text x="987.5" y="559.5">last_election_2_isGeneralElection</text></g><path d="M 950 570 M 980 570 M 980 600 M 950 600" fill="none" stroke="rgb(0, 0, 0)" stroke-linecap="square" stroke-miterlimit="10" pointer-events="none"/><path d="M 980 570 M 1200 570 M 1200 600 M 980 600" fill="none" stroke="rgb(0, 0, 0)" stroke-linecap="square" stroke-miterlimit="10" pointer-events="none"/><g fill="rgb(0, 0, 0)" font-family="Helvetica" pointer-events="none" clip-path="url(#mx-clip-986-570-214-30-0)" font-size="12px"><text x="987.5" y="589.5">last_election_3_electorate</text></g><path d="M 950 600 M 980 600 M 980 640 M 950 640" fill="none" stroke="rgb(0, 0, 0)" stroke-linecap="square" stroke-miterlimit="10" pointer-events="none"/><path d="M 980 600 M 1200 600 M 1200 640 M 980 640" fill="none" stroke="rgb(0, 0, 0)" stroke-linecap="square" stroke-miterlimit="10" pointer-events="none"/><g fill="rgb(0, 0, 0)" font-family="Helvetica" pointer-events="none" clip-path="url(#mx-clip-986-600-214-40-0)" font-size="12px"><text x="987.5" y="624.5">last_election_3_turnout</text></g><path d="M 950 640 M 980 640 M 980 670 M 950 670" fill="none" stroke="rgb(0, 0, 0)" stroke-linecap="square" stroke-miterlimit="10" pointer-events="none"/><path d="M 980 640 M 1200 640 M 1200 670 M 980 670" fill="none" stroke="rgb(0, 0, 0)" stroke-linecap="square" stroke-miterlimit="10" pointer-events="none"/><g fill="rgb(0, 0, 0)" font-family="Helvetica" pointer-events="none" clip-path="url(#mx-clip-986-640-214-30-0)" font-size="12px"><text x="987.5" y="659.5">last_election_3_majority</text></g><path d="M 950 670 M 980 670 M 980 700 M 950 700" fill="none" stroke="rgb(0, 0, 0)" stroke-linecap="square" stroke-miterlimit="10" pointer-events="none"/><path d="M 980 670 M 1200 670 M 1200 700 M 980 700" fill="none" stroke="rgb(0, 0, 0)" stroke-linecap="square" stroke-miterlimit="10" pointer-events="none"/><g fill="rgb(0, 0, 0)" font-family="Helvetica" pointer-events="none" clip-path="url(#mx-clip-986-670-214-30-0)" font-size="12px"><text x="987.5" y="689.5">last_election_3_result</text></g><path d="M 950 700 M 980 700 M 980 730 M 950 730" fill="none" stroke="rgb(0, 0, 0)" stroke-linecap="square" stroke-miterlimit="10" pointer-events="none"/><path d="M 980 700 M 1200 700 M 1200 730 M 980 730" fill="none" stroke="rgb(0, 0, 0)" stroke-linecap="square" stroke-miterlimit="10" pointer-events="none"/><g fill="rgb(0, 0, 0)" font-family="Helvetica" pointer-events="none" clip-path="url(#mx-clip-986-700-214-30-0)" font-size="12px"><text x="987.5" y="719.5">last_election_3_winning_party</text></g><path d="M 950 730 M 980 730 M 980 760 M 950 760" fill="none" stroke="rgb(0, 0, 0)" stroke-linecap="square" stroke-miterlimit="10" pointer-events="none"/><path d="M 980 730 M 1200 730 M 1200 760 M 980 760" fill="none" stroke="rgb(0, 0, 0)" stroke-linecap="square" stroke-miterlimit="10" pointer-events="none"/><g fill="rgb(0, 0, 0)" font-family="Helvetica" pointer-events="none" clip-path="url(#mx-clip-986-730-214-30-0)" font-size="12px"><text x="987.5" y="749.5">last_election_3_election_ID</text></g><path d="M 950 760 M 980 760 M 980 780 M 950 780" fill="none" stroke="rgb(0, 0, 0)" stroke-linecap="square" stroke-miterlimit="10" pointer-events="none"/><path d="M 980 760 M 1200 760 M 1200 780 M 980 780" fill="none" stroke="rgb(0, 0, 0)" stroke-linecap="square" stroke-miterlimit="10" pointer-events="none"/><g fill="rgb(0, 0, 0)" font-family="Helvetica" pointer-events="none" clip-path="url(#mx-clip-986-760-214-20-0)" font-size="12px"><text x="987.5" y="774.5">last_election_3_electionDate</text></g><path d="M 950 780 M 980 780 M 980 820 M 950 820" fill="none" stroke="rgb(0, 0, 0)" stroke-linecap="square" stroke-miterlimit="10" pointer-events="none"/><path d="M 980 780 M 1200 780 M 1200 820 M 980 820" fill="none" stroke="rgb(0, 0, 0)" stroke-linecap="square" stroke-miterlimit="10" pointer-events="none"/><g fill="rgb(0, 0, 0)" font-family="Helvetica" pointer-events="none" clip-path="url(#mx-clip-986-780-214-40-0)" font-size="12px"><text x="987.5" y="804.5">last_election_3_isGeneralElection</text></g><path d="M 950 820 M 980 820 M 980 850 M 950 850" fill="none" stroke="rgb(0, 0, 0)" stroke-linecap="square" stroke-miterlimit="10" pointer-events="none"/><path d="M 980 820 M 1200 820 M 1200 850 M 980 850" fill="none" stroke="rgb(0, 0, 0)" stroke-linecap="square" stroke-miterlimit="10" pointer-events="none"/><g fill="rgb(0, 0, 0)" font-family="Helvetica" pointer-events="none" clip-path="url(#mx-clip-986-820-214-30-0)" font-size="12px"><text x="987.5" y="839.5">last_election_4_electorate</text></g><path d="M 950 850 M 980 850 M 980 880 M 950 880" fill="none" stroke="rgb(0, 0, 0)" stroke-linecap="square" stroke-miterlimit="10" pointer-events="none"/><path d="M 980 850 M 1200 850 M 1200 880 M 980 880" fill="none" stroke="rgb(0, 0, 0)" stroke-linecap="square" stroke-miterlimit="10" pointer-events="none"/><g fill="rgb(0, 0, 0)" font-family="Helvetica" pointer-events="none" clip-path="url(#mx-clip-986-850-214-30-0)" font-size="12px"><text x="987.5" y="869.5">last_election_4_turnout</text></g><path d="M 950 880 M 980 880 M 980 900 M 950 900" fill="none" stroke="rgb(0, 0, 0)" stroke-linecap="square" stroke-miterlimit="10" pointer-events="none"/><path d="M 980 880 M 1200 880 M 1200 900 M 980 900" fill="none" stroke="rgb(0, 0, 0)" stroke-linecap="square" stroke-miterlimit="10" pointer-events="none"/><g fill="rgb(0, 0, 0)" font-family="Helvetica" pointer-events="none" clip-path="url(#mx-clip-986-880-214-20-0)" font-size="12px"><text x="987.5" y="894.5">last_election_4_majority</text></g><path d="M 950 900 M 980 900 M 980 930 M 950 930" fill="none" stroke="rgb(0, 0, 0)" stroke-linecap="square" stroke-miterlimit="10" pointer-events="none"/><path d="M 980 900 M 1200 900 M 1200 930 M 980 930" fill="none" stroke="rgb(0, 0, 0)" stroke-linecap="square" stroke-miterlimit="10" pointer-events="none"/><g fill="rgb(0, 0, 0)" font-family="Helvetica" pointer-events="none" clip-path="url(#mx-clip-986-900-214-30-0)" font-size="12px"><text x="987.5" y="919.5">last_election_4_result</text></g><path d="M 950 930 M 980 930 M 980 960 M 950 960" fill="none" stroke="rgb(0, 0, 0)" stroke-linecap="square" stroke-miterlimit="10" pointer-events="none"/><path d="M 980 930 M 1200 930 M 1200 960 M 980 960" fill="none" stroke="rgb(0, 0, 0)" stroke-linecap="square" stroke-miterlimit="10" pointer-events="none"/><g fill="rgb(0, 0, 0)" font-family="Helvetica" pointer-events="none" clip-path="url(#mx-clip-986-930-214-30-0)" font-size="12px"><text x="987.5" y="949.5">last_election_4_winning_party</text></g><path d="M 950 960 M 980 960 M 980 990 M 950 990" fill="none" stroke="rgb(0, 0, 0)" stroke-linecap="square" stroke-miterlimit="10" pointer-events="none"/><path d="M 980 960 M 1200 960 M 1200 990 M 980 990" fill="none" stroke="rgb(0, 0, 0)" stroke-linecap="square" stroke-miterlimit="10" pointer-events="none"/><g fill="rgb(0, 0, 0)" font-family="Helvetica" pointer-events="none" clip-path="url(#mx-clip-986-960-214-30-0)" font-size="12px"><text x="987.5" y="979.5">last_election_4_election_ID</text></g><path d="M 950 990 M 980 990 M 980 1020 M 950 1020" fill="none" stroke="rgb(0, 0, 0)" stroke-linecap="square" stroke-miterlimit="10" pointer-events="none"/><path d="M 980 990 M 1200 990 M 1200 1020 M 980 1020" fill="none" stroke="rgb(0, 0, 0)" stroke-linecap="square" stroke-miterlimit="10" pointer-events="none"/><g fill="rgb(0, 0, 0)" font-family="Helvetica" pointer-events="none" clip-path="url(#mx-clip-986-990-214-30-0)" font-size="12px"><text x="987.5" y="1009.5">last_election_4_electionDate</text></g><path d="M 950 1020 M 980 1020 M 980 1050 M 950 1050" fill="none" stroke="rgb(0, 0, 0)" stroke-linecap="square" stroke-miterlimit="10" pointer-events="none"/><path d="M 980 1020 M 1200 1020 M 1200 1050 M 980 1050" fill="none" stroke="rgb(0, 0, 0)" stroke-linecap="square" stroke-miterlimit="10" pointer-events="none"/><g fill="rgb(0, 0, 0)" font-family="Helvetica" pointer-events="none" clip-path="url(#mx-clip-986-1020-214-30-0)" font-size="12px"><text x="987.5" y="1039.5">last_election_4_isGeneralElection</text></g><path d="M 950 1050 M 980 1050 M 980 1090 M 950 1090" fill="none" stroke="rgb(0, 0, 0)" stroke-linecap="square" stroke-miterlimit="10" pointer-events="none"/><path d="M 980 1050 M 1200 1050 M 1200 1090 M 980 1090" fill="none" stroke="rgb(0, 0, 0)" stroke-linecap="square" stroke-miterlimit="10" pointer-events="none"/><g fill="rgb(0, 0, 0)" font-family="Helvetica" pointer-events="none" clip-path="url(#mx-clip-986-1050-214-40-0)" font-size="12px"><text x="987.5" y="1074.5">shapefile</text></g><path d="M 950 1090 M 980 1090 M 980 1120 M 950 1120" fill="none" stroke="rgb(0, 0, 0)" stroke-linecap="square" stroke-miterlimit="10" pointer-events="none"/><path d="M 980 1090 M 1200 1090 M 1200 1120 M 980 1120" fill="none" stroke="rgb(0, 0, 0)" stroke-linecap="square" stroke-miterlimit="10" pointer-events="none"/><g fill="rgb(0, 0, 0)" font-family="Helvetica" pointer-events="none" clip-path="url(#mx-clip-986-1090-214-30-0)" font-size="12px"><text x="987.5" y="1109.5">region_nation_hoclib23</text></g><path d="M 950 1120 M 980 1120 M 980 1150 M 950 1150" fill="none" stroke="rgb(0, 0, 0)" stroke-linecap="square" stroke-miterlimit="10" pointer-events="none"/><path d="M 980 1120 M 1200 1120 M 1200 1150 M 980 1150" fill="none" stroke="rgb(0, 0, 0)" stroke-linecap="square" stroke-miterlimit="10" pointer-events="none"/><g fill="rgb(0, 0, 0)" font-family="Helvetica" pointer-events="none" clip-path="url(#mx-clip-986-1120-214-30-0)" font-size="12px"><text x="987.5" y="1139.5">population_hoclib23</text></g><path d="M 950 1150 M 980 1150 M 980 1180 M 950 1180" fill="none" stroke="rgb(0, 0, 0)" stroke-linecap="square" stroke-miterlimit="10" pointer-events="none"/><path d="M 980 1150 M 1200 1150 M 1200 1180 M 980 1180" fill="none" stroke="rgb(0, 0, 0)" stroke-linecap="square" stroke-miterlimit="10" pointer-events="none"/><g fill="rgb(0, 0, 0)" font-family="Helvetica" pointer-events="none" clip-path="url(#mx-clip-986-1150-214-30-0)" font-size="12px"><text x="987.5" y="1169.5">area_hoclib23</text></g><path d="M 950 1180 M 980 1180 M 980 1210 M 950 1210" fill="none" stroke="rgb(0, 0, 0)" stroke-linecap="square" stroke-miterlimit="10" pointer-events="none"/><path d="M 980 1180 M 1200 1180 M 1200 1210 M 980 1210" fill="none" stroke="rgb(0, 0, 0)" stroke-linecap="square" stroke-miterlimit="10" pointer-events="none"/><g fill="rgb(0, 0, 0)" font-family="Helvetica" pointer-events="none" clip-path="url(#mx-clip-986-1180-214-30-0)" font-size="12px"><text x="987.5" y="1199.5">age_0_29_hoclib23</text></g><path d="M 950 1210 M 980 1210 M 980 1240 M 950 1240" fill="none" stroke="rgb(0, 0, 0)" stroke-linecap="square" stroke-miterlimit="10" pointer-events="none"/><path d="M 980 1210 M 1200 1210 M 1200 1240 M 980 1240" fill="none" stroke="rgb(0, 0, 0)" stroke-linecap="square" stroke-miterlimit="10" pointer-events="none"/><g fill="rgb(0, 0, 0)" font-family="Helvetica" pointer-events="none" clip-path="url(#mx-clip-986-1210-214-30-0)" font-size="12px"><text x="987.5" y="1229.5">age_30_64_hoclib23</text></g><path d="M 950 1240 M 980 1240 M 980 1270 M 950 1270" fill="none" stroke="rgb(0, 0, 0)" stroke-linecap="square" stroke-miterlimit="10" pointer-events="none"/><path d="M 980 1240 M 1200 1240 M 1200 1270 M 980 1270" fill="none" stroke="rgb(0, 0, 0)" stroke-linecap="square" stroke-miterlimit="10" pointer-events="none"/><g fill="rgb(0, 0, 0)" font-family="Helvetica" pointer-events="none" clip-path="url(#mx-clip-986-1240-214-30-0)" font-size="12px"><text x="987.5" y="1259.5">age_65_plus_hoclib23</text></g><path d="M 950 1270 M 980 1270 M 980 1300 M 950 1300" fill="none" stroke="rgb(0, 0, 0)" stroke-linecap="square" stroke-miterlimit="10" pointer-events="none"/><path d="M 980 1270 M 1200 1270 M 1200 1300 M 980 1300" fill="none" stroke="rgb(0, 0, 0)" stroke-linecap="square" stroke-miterlimit="10" pointer-events="none"/><g fill="rgb(0, 0, 0)" font-family="Helvetica" pointer-events="none" clip-path="url(#mx-clip-986-1270-214-30-0)" font-size="12px"><text x="987.5" y="1289.5">uc_claimants_hoclib23</text></g><path d="M 950 1300 M 980 1300 M 980 1330 M 950 1330" fill="none" stroke="rgb(0, 0, 0)" stroke-linecap="square" stroke-miterlimit="10" pointer-events="none"/><path d="M 980 1300 M 1200 1300 M 1200 1330 M 980 1330" fill="none" stroke="rgb(0, 0, 0)" stroke-linecap="square" stroke-miterlimit="10" pointer-events="none"/><g fill="rgb(0, 0, 0)" font-family="Helvetica" pointer-events="none" clip-path="url(#mx-clip-986-1300-214-30-0)" font-size="12px"><text x="987.5" y="1319.5">median_house_price_hoclib23</text></g><path d="M 460 770 L 460 740 L 640 740 L 640 770" fill="rgb(255, 255, 255)" stroke="rgb(0, 0, 0)" stroke-miterlimit="10" pointer-events="none"/><path d="M 460 770 L 460 980 L 640 980 L 640 770" fill="none" stroke="rgb(0, 0, 0)" stroke-miterlimit="10" pointer-events="none"/><path d="M 460 770 L 640 770" fill="none" stroke="rgb(0, 0, 0)" stroke-miterlimit="10" pointer-events="none"/><path d="M 490 770 L 490 800 L 490 830 L 490 860 L 490 890 L 490 920 L 490 950 L 490 980" fill="none" stroke="rgb(0, 0, 0)" stroke-miterlimit="10" pointer-events="none"/><g fill="rgb(0, 0, 0)" font-family="Helvetica" font-weight="bold" pointer-events="none" text-anchor="middle" font-size="12px"><text x="549.5" y="759.5">members</text></g><path d="M 460 770 M 640 770 M 640 800 L 460 800" fill="none" stroke="rgb(0, 0, 0)" stroke-linecap="square" stroke-miterlimit="10" pointer-events="none"/><path d="M 460 770 M 490 770 M 490 800 M 460 800" fill="none" stroke="rgb(0, 0, 0)" stroke-linecap="square" stroke-miterlimit="10" pointer-events="none"/><g fill="rgb(0, 0, 0)" font-family="Helvetica" font-weight="bold" pointer-events="none" clip-path="url(#mx-clip-460-770-30-30-0)" text-anchor="middle" font-size="12px"><text x="474.5" y="789.5">PK</text></g><path d="M 490 770 M 640 770 M 640 800 M 490 800" fill="none" stroke="rgb(0, 0, 0)" stroke-linecap="square" stroke-miterlimit="10" pointer-events="none"/><g fill="rgb(0, 0, 0)" font-family="Helvetica" font-weight="bold" text-decoration="underline" pointer-events="none" clip-path="url(#mx-clip-496-770-144-30-0)" font-size="12px"><text x="497.5" y="789.5">member_id</text></g><path d="M 460 800 M 490 800 M 490 830 M 460 830" fill="none" stroke="rgb(0, 0, 0)" stroke-linecap="square" stroke-miterlimit="10" pointer-events="none"/><path d="M 490 800 M 640 800 M 640 830 M 490 830" fill="none" stroke="rgb(0, 0, 0)" stroke-linecap="square" stroke-miterlimit="10" pointer-events="none"/><g fill="rgb(0, 0, 0)" font-family="Helvetica" pointer-events="none" clip-path="url(#mx-clip-496-800-144-30-0)" font-size="12px"><text x="497.5" y="819.5">name_display</text></g><path d="M 460 830 M 490 830 M 490 860 M 460 860" fill="none" stroke="rgb(0, 0, 0)" stroke-linecap="square" stroke-miterlimit="10" pointer-events="none"/><path d="M 490 830 M 640 830 M 640 860 M 490 860" fill="none" stroke="rgb(0, 0, 0)" stroke-linecap="square" stroke-miterlimit="10" pointer-events="none"/><g fill="rgb(0, 0, 0)" font-family="Helvetica" pointer-events="none" clip-path="url(#mx-clip-496-830-144-30-0)" font-size="12px"><text x="497.5" y="849.5">gender</text></g><path d="M 460 860 M 490 860 M 490 890 M 460 890" fill="none" stroke="rgb(0, 0, 0)" stroke-linecap="square" stroke-miterlimit="10" pointer-events="none"/><path d="M 490 860 M 640 860 M 640 890 M 490 890" fill="none" stroke="rgb(0, 0, 0)" stroke-linecap="square" stroke-miterlimit="10" pointer-events="none"/><g fill="rgb(0, 0, 0)" font-family="Helvetica" pointer-events="none" clip-path="url(#mx-clip-496-860-144-30-0)" font-size="12px"><text x="497.5" y="879.5">latest_constituency</text></g><path d="M 460 890 M 490 890 M 490 920 M 460 920" fill="none" stroke="rgb(0, 0, 0)" stroke-linecap="square" stroke-miterlimit="10" pointer-events="none"/><path d="M 490 890 M 640 890 M 640 920 M 490 920" fill="none" stroke="rgb(0, 0, 0)" stroke-linecap="square" stroke-miterlimit="10" pointer-events="none"/><g fill="rgb(0, 0, 0)" font-family="Helvetica" pointer-events="none" clip-path="url(#mx-clip-496-890-144-30-0)" font-size="12px"><text x="497.5" y="909.5">latest_party_id</text></g><path d="M 460 920 M 490 920 M 490 950 M 460 950" fill="none" stroke="rgb(0, 0, 0)" stroke-linecap="square" stroke-miterlimit="10" pointer-events="none"/><path d="M 490 920 M 640 920 M 640 950 M 490 950" fill="none" stroke="rgb(0, 0, 0)" stroke-linecap="square" stroke-miterlimit="10" pointer-events="none"/><g fill="rgb(0, 0, 0)" font-family="Helvetica" pointer-events="none" clip-path="url(#mx-clip-496-920-144-30-0)" font-size="12px"><text x="497.5" y="939.5">member_date_valid_min</text></g><path d="M 460 950 M 490 950 M 490 980 M 460 980" fill="none" stroke="rgb(0, 0, 0)" stroke-linecap="square" stroke-miterlimit="10" pointer-events="none"/><path d="M 490 950 M 640 950 M 640 980 M 490 980" fill="none" stroke="rgb(0, 0, 0)" stroke-linecap="square" stroke-miterlimit="10" pointer-events="none"/><g fill="rgb(0, 0, 0)" font-family="Helvetica" pointer-events="none" clip-path="url(#mx-clip-496-950-144-30-0)" font-size="12px"><text x="497.5" y="969.5">member_date_valid_max</text></g><path d="M 460 785 L 430 785 L 260 610 L 230 610" fill="none" stroke="rgb(0, 0, 0)" stroke-miterlimit="10" pointer-events="none"/><path d="M 456 789 L 456 781 M 452 789 L 452 781" fill="none" stroke="rgb(0, 0, 0)" stroke-miterlimit="10" pointer-events="none"/><ellipse cx="242" cy="610" rx="3" ry="3" fill="#ffffff" stroke="rgb(0, 0, 0)" pointer-events="none"/><path d="M 230 614 L 238 610 L 230 606" fill="none" stroke="rgb(0, 0, 0)" stroke-miterlimit="10" pointer-events="none"/><path d="M 640 875 L 670 875 L 920 45 L 950 45" fill="none" stroke="rgb(0, 0, 0)" stroke-miterlimit="10" pointer-events="none"/><ellipse cx="652" cy="875" rx="3" ry="3" fill="#ffffff" stroke="rgb(0, 0, 0)" pointer-events="none"/><path d="M 640 879 L 648 875 L 640 871" fill="none" stroke="rgb(0, 0, 0)" stroke-miterlimit="10" pointer-events="none"/><ellipse cx="938" cy="45" rx="3" ry="3" fill="#ffffff" stroke="rgb(0, 0, 0)" pointer-events="none"/><path d="M 950 41 L 942 45 L 950 49" fill="none" stroke="rgb(0, 0, 0)" stroke-miterlimit="10" pointer-events="none"/><path d="M 640 905 L 670 905 L 700 1095 L 730 1095" fill="none" stroke="rgb(0, 0, 0)" stroke-miterlimit="10" pointer-events="none"/><ellipse cx="652" cy="905" rx="3" ry="3" fill="#ffffff" stroke="rgb(0, 0, 0)" pointer-events="none"/><path d="M 640 909 L 648 905 L 640 901" fill="none" stroke="rgb(0, 0, 0)" stroke-miterlimit="10" pointer-events="none"/><ellipse cx="718" cy="1095" rx="3" ry="3" fill="#ffffff" stroke="rgb(0, 0, 0)" pointer-events="none"/><path d="M 730 1091 L 722 1095 L 730 1099" fill="none" stroke="rgb(0, 0, 0)" stroke-miterlimit="10" pointer-events="none"/><path d="M 460 785 L 430 785 L 260 775 L 230 775" fill="none" stroke="rgb(0, 0, 0)" stroke-miterlimit="10" pointer-events="none"/><path d="M 456 789 L 456 781 M 452 789 L 452 781" fill="none" stroke="rgb(0, 0, 0)" stroke-miterlimit="10" pointer-events="none"/><ellipse cx="242" cy="775" rx="3" ry="3" fill="#ffffff" stroke="rgb(0, 0, 0)" pointer-events="none"/><path d="M 230 779 L 238 775 L 230 771" fill="none" stroke="rgb(0, 0, 0)" stroke-miterlimit="10" pointer-events="none"/></g></svg>